HIERARCHY
ROOT Hips
{
	OFFSET 0.000000 0.000000 0.000000 
	CHANNELS 6 Xposition Yposition Zposition Zrotation Yrotation Xrotation
	JOINT LeftUpLeg
	{
		OFFSET 1.363060 -1.794630 0.839290 
		CHANNELS 3 Zrotation Yrotation Xrotation
		JOINT LeftLeg
		{
			OFFSET 2.448110 -6.726130 0.000000 
			CHANNELS 3 Zrotation Yrotation Xrotation
			JOINT LeftFoot
			{
				OFFSET 2.562200 -7.039590 0.000000 
				CHANNELS 3 Zrotation Yrotation Xrotation
				JOINT LeftToeBase
				{
					OFFSET 0.157640 -0.433110 2.322550 
					CHANNELS 3 Zrotation Yrotation Xrotation
					End Site
					{
						OFFSET 0.000000 0.000000 0.000000 
					}
				}
			}
		}
	}
	JOINT RightUpLeg
	{
		OFFSET -1.305520 -1.794630 0.839290 
		CHANNELS 3 Zrotation Yrotation Xrotation
		JOINT RightLeg
		{
			OFFSET -2.542530 -6.985550 0.000000 
			CHANNELS 3 Zrotation Yrotation Xrotation
			JOINT RightFoot
			{
				OFFSET -2.568260 -7.056230 0.000000 
				CHANNELS 3 Zrotation Yrotation Xrotation
				JOINT RightToeBase
				{
					OFFSET -0.164730 -0.452590 2.363150 
					CHANNELS 3 Zrotation Yrotation Xrotation
					End Site
					{
						OFFSET 0.000000 0.000000 0.000000 
					}
				}
			}
		}
	}
	JOINT Spine
	{
		OFFSET 0.028270 2.035590 -0.193380 
		CHANNELS 3 Zrotation Yrotation Xrotation
		JOINT Spine1
		{
			OFFSET 0.056720 2.048850 -0.042750 
			CHANNELS 3 Zrotation Yrotation Xrotation
			JOINT Neck1
			{
				OFFSET -0.054170 1.746240 0.172020 
				CHANNELS 3 Zrotation Yrotation Xrotation
				JOINT Head
				{
					OFFSET 0.104070 1.761360 -0.123970 
					CHANNELS 3 Zrotation Yrotation Xrotation
					End Site
					{
						OFFSET 0.000000 0.000000 0.000000 
					}
				}
			}
			JOINT LeftArm
			{
				OFFSET 3.362410 1.200890 -0.311210 
				CHANNELS 3 Zrotation Yrotation Xrotation
				JOINT LeftForeArm
				{
					OFFSET 4.983000 -0.000000 -0.000000 
					CHANNELS 3 Zrotation Yrotation Xrotation
					JOINT LeftHand
					{
						OFFSET 3.483560 -0.000000 -0.000000 
						CHANNELS 3 Zrotation Yrotation Xrotation
						JOINT LeftHandIndex1
						{
							OFFSET 0.715260 -0.000000 -0.000000 
							CHANNELS 3 Zrotation Yrotation Xrotation
							End Site
							{
								OFFSET 0.000000 0.000000 0.000000 
							}
						}
					}
				}
			}
			JOINT RightArm
			{
				OFFSET -3.136600 1.374050 -0.404650 
				CHANNELS 3 Zrotation Yrotation Xrotation
				JOINT RightForeArm
				{
					OFFSET -5.241900 -0.000000 -0.000000 
					CHANNELS 3 Zrotation Yrotation Xrotation
					JOINT RightHand
					{
						OFFSET -3.444170 -0.000000 -0.000000 
						CHANNELS 3 Zrotation Yrotation Xrotation
						JOINT RightHandIndex1
						{
							OFFSET -0.622530 -0.000000 -0.000000 
							CHANNELS 3 Zrotation Yrotation Xrotation
							End Site
							{
								OFFSET 0.000000 0.000000 0.000000 
							}
						}
					}
				}
			}
		}
	}
}
MOTION
Frames: 10
Frame Time: 0.041667
15.797585 16.302841 19.981615 166.590577 -4.954537 -174.120103 10.953004 -15.044307 -48.073891 -1.040526 11.111885 22.315315 2.729888 20.933891 -1.402977 0.333200 -3.709900 -10.262000 19.568224 7.939481 4.396537 -5.531185 -11.662265 43.632517 -6.590802 -0.820681 -45.554351 -4.615000 12.936700 -39.131900 1.245365 0.677108 -3.216564 -6.095394 0.579419 14.518117 3.932364 5.284660 24.644084 0.140900 3.244300 5.122300 -104.872941 6.015380 5.377221 11.359215 -13.133278 -1.557181 -1.587262 1.370521 7.045363 -7.125000 0.000000 0.000000 88.495739 -6.787903 15.237974 -20.806262 33.559290 -8.061300 0.403937 3.805913 -4.087930 7.125000 0.000000 0.000000 
15.712483 16.269806 19.900451 166.613870 -4.897353 -174.334032 11.137306 -15.339700 -47.593602 -1.114104 10.866318 21.722289 2.778271 21.219358 -0.985587 0.287300 -3.447100 -9.526000 19.354002 7.794763 5.101481 -5.537451 -11.543822 43.495844 -6.656773 -0.787344 -45.683906 -4.816600 13.174200 -40.024300 1.271720 0.585571 -3.194041 -6.126714 0.553711 14.447074 3.992248 5.299292 24.680063 0.175700 3.249200 5.134600 -104.944782 6.253555 4.703390 11.292840 -13.051914 -1.530729 -1.591955 1.409355 7.401505 -7.125000 0.000000 0.000000 88.291343 -6.554735 15.746148 -21.369955 34.110705 -8.380463 0.330923 3.732602 -3.867790 7.125000 0.000000 0.000000 
15.624645 16.235021 19.824974 166.827886 -4.857770 -174.480819 11.541614 -15.566267 -47.254455 -1.174188 10.683573 21.262419 2.761982 21.809172 -1.080792 0.154900 -2.535700 -6.988600 19.372678 7.770331 5.666116 -5.558610 -11.476750 43.475912 -6.634986 -0.590405 -45.467611 -4.657300 12.987200 -39.320600 1.284345 0.577302 -3.191877 -6.264112 0.579071 14.276883 3.941684 5.279153 24.811859 0.146500 3.237500 5.168700 -104.888843 6.673115 4.468800 11.275485 -13.050403 -1.521956 -1.635339 1.463563 7.707980 -7.125000 0.000000 0.000000 88.189001 -6.429986 15.969410 -21.822113 34.576961 -8.661717 0.301603 3.824076 -3.144576 7.125000 0.000000 0.000000 
15.525213 16.204612 19.740965 166.758025 -4.378947 -174.315046 11.701408 -15.546067 -46.890756 -1.236448 10.508229 20.831680 2.697799 22.609787 -1.451793 0.052000 -1.472100 -4.048700 18.921425 8.175115 5.647813 -5.637694 -11.538333 43.764311 -6.637390 -0.451145 -45.442567 -4.713200 13.053400 -39.568700 1.246328 0.781170 -3.177319 -6.335308 0.688513 14.363551 3.831963 5.358439 24.923518 0.120700 3.269300 5.190700 -104.821225 6.942151 4.343643 11.250982 -13.034531 -1.513930 -1.642440 1.495100 7.719361 -7.125000 0.000000 0.000000 88.030641 -6.082835 16.012751 -21.777484 34.535722 -8.648599 0.333902 3.854313 -3.151719 7.125000 0.000000 0.000000 
15.431031 16.172671 19.663629 166.781586 -4.179379 -174.332263 11.777901 -15.623370 -46.676347 -1.271671 10.393693 20.595999 2.764315 22.841726 -0.884636 0.084300 -1.873200 -5.155200 18.650408 8.241613 5.853346 -5.688400 -11.558654 43.978241 -6.597233 -0.919421 -45.465660 -5.120900 13.518600 -41.342300 1.319993 0.630326 -3.122338 -6.223401 0.629826 14.472381 3.871285 5.616190 24.773655 0.259100 3.362400 5.171700 -105.080638 6.859739 3.488903 11.190290 -12.931139 -1.483528 -1.634336 1.427295 7.827015 -7.125000 0.000000 0.000000 87.515113 -5.266841 16.482619 -21.294148 34.025659 -8.377057 0.411992 3.860875 -4.707743 7.125000 0.000000 0.000000 
15.336084 16.139527 19.573932 166.921078 -4.199292 -174.473680 11.926931 -15.873199 -46.455516 -1.299899 10.264376 20.334867 2.890042 22.757554 0.049042 0.217000 -2.999000 -8.276000 18.505906 8.055926 6.427528 -5.704571 -11.489714 43.966480 -6.615347 -1.246490 -45.593381 -5.424400 13.846400 -42.625400 1.257104 0.780625 -3.093885 -6.459076 0.727722 14.469589 3.828320 5.351510 25.004404 0.168100 3.253500 5.250500 -104.601917 7.140392 3.788137 11.159592 -12.880215 -1.470116 -1.616190 1.212475 7.555219 -7.125000 0.000000 0.000000 87.791671 -5.196512 16.455667 -21.851206 34.594890 -8.695121 0.188175 3.959646 -4.486059 7.125000 0.000000 0.000000 
15.235448 16.104523 19.486861 166.949911 -3.972324 -174.409705 12.014105 -15.897131 -46.292887 -1.317389 10.163796 20.123310 2.948225 22.721610 0.493531 0.289900 -3.462700 -9.569600 18.118191 8.079981 6.737168 -5.747896 -11.449461 43.985051 -6.722505 -0.805608 -45.769275 -5.424000 13.846000 -42.623900 1.202675 0.927023 -3.071067 -6.622847 0.818249 14.543479 3.830219 5.237964 25.120199 0.132300 3.212500 5.294800 -104.346372 7.423466 3.961121 11.191237 -12.946030 -1.482673 -1.586568 1.074040 7.155466 -7.125000 0.000000 0.000000 87.857536 -5.034505 16.410733 -21.864562 34.621584 -8.730890 0.381349 3.839162 -4.498827 7.125000 0.000000 0.000000 
15.128578 16.066566 19.411822 166.894102 -3.410118 -174.030536 12.043468 -15.534067 -46.316040 -1.320887 10.099565 19.996719 2.968124 22.689991 0.668611 0.317400 -3.621700 -10.014800 17.513208 8.477311 6.454820 -5.785180 -11.484016 44.072796 -6.746996 -0.234614 -45.667590 -5.326600 13.742400 -42.215300 1.141264 1.190619 -3.069548 -6.733014 0.954806 14.598147 3.850408 5.194982 25.066176 0.133500 3.196200 5.282200 -104.211186 7.509997 3.984826 11.180170 -12.936598 -1.475821 -1.619673 1.099980 6.834272 -7.125000 0.000000 0.000000 87.800490 -4.675956 16.744737 -22.165401 34.903416 -8.909714 0.443710 3.695444 -4.786045 7.125000 0.000000 0.000000 
15.027396 16.033094 19.337001 166.947561 -3.167232 -173.811862 12.058387 -15.347847 -46.440335 -1.315970 10.072694 19.969077 3.056823 22.403285 1.276219 0.399100 -4.056200 -11.234800 17.141114 8.614713 6.462586 -5.782184 -11.456750 44.018479 -6.703569 -0.039403 -45.424048 -5.236800 13.645600 -41.835700 1.147768 1.227037 -3.060389 -6.731215 0.982894 14.570425 3.895905 5.248893 24.942945 0.190700 3.211000 5.241900 -104.211153 7.626744 3.890706 11.187593 -12.955898 -1.473074 -1.669805 1.120397 6.483772 -7.125000 0.000000 0.000000 87.601616 -4.394404 17.372252 -22.797962 35.513259 -9.295248 0.375998 3.684457 -4.975538 7.125000 0.000000 0.000000 
14.927526 16.001919 19.243476 166.876543 -3.003605 -173.600525 11.950549 -15.279552 -46.503338 -1.333837 10.048571 19.908015 3.076078 22.553199 1.388031 0.268800 -3.335200 -9.213500 16.621830 8.589796 6.667195 -5.742467 -11.352032 43.760171 -6.685844 0.066683 -45.260907 -5.211000 13.617500 -41.726400 1.168802 1.203632 -3.033947 -6.569409 0.966238 14.722564 3.901218 5.226028 24.860601 0.229300 3.186000 5.213500 -104.293645 7.801216 3.619261 11.238577 -13.071072 -1.493362 -1.657575 1.087297 6.032108 -7.125000 0.000000 0.000000 87.329152 -4.093244 18.034088 -23.452210 36.142542 -9.709078 0.318932 3.748013 -5.045626 7.125000 0.000000 0.000000 
